<svg version="1.1" xmlns="http://www.w3.org/2000/svg" xmlns:xlink="http://www.w3.org/1999/xlink" width="600"
  height="300" viewBox="0 0 600 300">
  <defs></defs>
  <g transform="scale(1,1) scale(1,1)">
    <g transform="translate(47.99335864452223,47.9978593723467) rotate(-0.017429238437244754,0,0)">
      <path fill="none" stroke="#000000" paint-order="fill stroke markers" d=" M -8 -8 L 8 -8 L 8 8 L -8 8 L -8 -8 Z"
        stroke-linecap="round" stroke-miterlimit="10"></path>
    </g>
    <g transform="translate(48.0131168471507,68.01303042454711) rotate(0.30613949478439895,0,0)">
      <path fill="none" stroke="#000000" paint-order="fill stroke markers" d=" M -8 -8 L 8 -8 L 8 8 L -8 8 L -8 -8 Z"
        stroke-linecap="round" stroke-miterlimit="10"></path>
    </g>
    <g transform="translate(48.00899499006016,87.97712712258003) rotate(0.508409634764686,0,0)">
      <path fill="none" stroke="#000000" paint-order="fill stroke markers" d=" M -8 -8 L 8 -8 L 8 8 L -8 8 L -8 -8 Z"
        stroke-linecap="round" stroke-miterlimit="10"></path>
    </g>
    <g transform="translate(48.03620954586643,107.99009756249065) rotate(-1.2609369854644727,0,0)">
      <path fill="none" stroke="#000000" paint-order="fill stroke markers" d=" M -8 -8 L 8 -8 L 8 8 L -8 8 L -8 -8 Z"
        stroke-linecap="round" stroke-miterlimit="10"></path>
    </g>
    <g transform="translate(48.03555040721474,127.96799312608265) rotate(0.4677715023867766,0,0)">
      <path fill="none" stroke="#000000" paint-order="fill stroke markers" d=" M -8 -8 L 8 -8 L 8 8 L -8 8 L -8 -8 Z"
        stroke-linecap="round" stroke-miterlimit="10"></path>
    </g>
    <g transform="translate(48.01485471820613,147.96363212678588) rotate(0.645290009200445,0,0)">
      <path fill="none" stroke="#000000" paint-order="fill stroke markers" d=" M -8 -8 L 8 -8 L 8 8 L -8 8 L -8 -8 Z"
        stroke-linecap="round" stroke-miterlimit="10"></path>
    </g>
    <g transform="translate(48.03784093760871,168.03009836235836) rotate(0.7726452928117569,0,0)">
      <path fill="none" stroke="#000000" paint-order="fill stroke markers" d=" M -8 -8 L 8 -8 L 8 8 L -8 8 L -8 -8 Z"
        stroke-linecap="round" stroke-miterlimit="10"></path>
    </g>
    <g transform="translate(48.04498936069343,187.95367612868264) rotate(-3.8761448181146827,0,0)">
      <path fill="none" stroke="#000000" paint-order="fill stroke markers" d=" M -8 -8 L 8 -8 L 8 8 L -8 8 L -8 -8 Z"
        stroke-linecap="round" stroke-miterlimit="10"></path>
    </g>
    <g transform="translate(48.02961082730314,207.99914071587904) rotate(3.221154060326319,0,0)">
      <path fill="none" stroke="#000000" paint-order="fill stroke markers" d=" M -8 -8 L 8 -8 L 8 8 L -8 8 L -8 -8 Z"
        stroke-linecap="round" stroke-miterlimit="10"></path>
    </g>
    <g transform="translate(47.9684005762503,228.04485061524704) rotate(-2.4269641437925262,0,0)">
      <path fill="none" stroke="#000000" paint-order="fill stroke markers" d=" M -8 -8 L 8 -8 L 8 8 L -8 8 L -8 -8 Z"
        stroke-linecap="round" stroke-miterlimit="10"></path>
    </g>
    <g transform="translate(47.97872489746711,248.02468253064148) rotate(-0.45071286871208294,0,0)">
      <path fill="none" stroke="#000000" paint-order="fill stroke markers" d=" M -8 -8 L 8 -8 L 8 8 L -8 8 L -8 -8 Z"
        stroke-linecap="round" stroke-miterlimit="10"></path>
    </g>
    <g transform="translate(68.01790327248483,48.01087310923823) rotate(4.9234615716669,0,0)">
      <path fill="none" stroke="#000000" paint-order="fill stroke markers" d=" M -8 -8 L 8 -8 L 8 8 L -8 8 L -8 -8 Z"
        stroke-linecap="round" stroke-miterlimit="10"></path>
    </g>
    <g transform="translate(67.94987699586166,67.99675274982705) rotate(5.0246543478179095,0,0)">
      <path fill="none" stroke="#000000" paint-order="fill stroke markers" d=" M -8 -8 L 8 -8 L 8 8 L -8 8 L -8 -8 Z"
        stroke-linecap="round" stroke-miterlimit="10"></path>
    </g>
    <g transform="translate(68.1178588687939,88.0400686118721) rotate(-7.17067640372319,0,0)">
      <path fill="none" stroke="#000000" paint-order="fill stroke markers" d=" M -8 -8 L 8 -8 L 8 8 L -8 8 L -8 -8 Z"
        stroke-linecap="round" stroke-miterlimit="10"></path>
    </g>
    <g transform="translate(67.9982687308541,107.99080597815289) rotate(3.8652728459986907,0,0)">
      <path fill="none" stroke="#000000" paint-order="fill stroke markers" d=" M -8 -8 L 8 -8 L 8 8 L -8 8 L -8 -8 Z"
        stroke-linecap="round" stroke-miterlimit="10"></path>
    </g>
    <g transform="translate(67.90245184490445,127.94165736766615) rotate(1.3428348042976808,0,0)">
      <path fill="none" stroke="#000000" paint-order="fill stroke markers" d=" M -8 -8 L 8 -8 L 8 8 L -8 8 L -8 -8 Z"
        stroke-linecap="round" stroke-miterlimit="10"></path>
    </g>
    <g transform="translate(68.17964664120797,147.98810226803963) rotate(-3.7985538810627117,0,0)">
      <path fill="none" stroke="#000000" paint-order="fill stroke markers" d=" M -8 -8 L 8 -8 L 8 8 L -8 8 L -8 -8 Z"
        stroke-linecap="round" stroke-miterlimit="10"></path>
    </g>
    <g transform="translate(68.12964556539855,167.87871719030232) rotate(-1.7195133908275173,0,0)">
      <path fill="none" stroke="#000000" paint-order="fill stroke markers" d=" M -8 -8 L 8 -8 L 8 8 L -8 8 L -8 -8 Z"
        stroke-linecap="round" stroke-miterlimit="10"></path>
    </g>
    <g transform="translate(68.22378950652971,188.21431663296212) rotate(6.052831262592495,0,0)">
      <path fill="none" stroke="#000000" paint-order="fill stroke markers" d=" M -8 -8 L 8 -8 L 8 8 L -8 8 L -8 -8 Z"
        stroke-linecap="round" stroke-miterlimit="10"></path>
    </g>
    <g transform="translate(67.90283567456704,207.93132498417947) rotate(-6.303246484201884,0,0)">
      <path fill="none" stroke="#000000" paint-order="fill stroke markers" d=" M -8 -8 L 8 -8 L 8 8 L -8 8 L -8 -8 Z"
        stroke-linecap="round" stroke-miterlimit="10"></path>
    </g>
    <g transform="translate(68.1230546503065,228.16275361266295) rotate(11.736444379774845,0,0)">
      <path fill="none" stroke="#000000" paint-order="fill stroke markers" d=" M -8 -8 L 8 -8 L 8 8 L -8 8 L -8 -8 Z"
        stroke-linecap="round" stroke-miterlimit="10"></path>
    </g>
    <g transform="translate(67.76937129511148,247.86657090319846) rotate(-9.3570669519746,0,0)">
      <path fill="none" stroke="#000000" paint-order="fill stroke markers" d=" M -8 -8 L 8 -8 L 8 8 L -8 8 L -8 -8 Z"
        stroke-linecap="round" stroke-miterlimit="10"></path>
    </g>
    <g transform="translate(87.84547089695135,47.95487676332303) rotate(-13.742967751679194,0,0)">
      <path fill="none" stroke="#000000" paint-order="fill stroke markers" d=" M -8 -8 L 8 -8 L 8 8 L -8 8 L -8 -8 Z"
        stroke-linecap="round" stroke-miterlimit="10"></path>
    </g>
    <g transform="translate(88.23357648568464,67.69517264528601) rotate(13.965817166287714,0,0)">
      <path fill="none" stroke="#000000" paint-order="fill stroke markers" d=" M -8 -8 L 8 -8 L 8 8 L -8 8 L -8 -8 Z"
        stroke-linecap="round" stroke-miterlimit="10"></path>
    </g>
    <g transform="translate(87.68509000540449,87.92710932835634) rotate(4.326701605435225,0,0)">
      <path fill="none" stroke="#000000" paint-order="fill stroke markers" d=" M -8 -8 L 8 -8 L 8 8 L -8 8 L -8 -8 Z"
        stroke-linecap="round" stroke-miterlimit="10"></path>
    </g>
    <g transform="translate(88.27821975901244,107.88970455960512) rotate(-1.2197303880880561,0,0)">
      <path fill="none" stroke="#000000" paint-order="fill stroke markers" d=" M -8 -8 L 8 -8 L 8 8 L -8 8 L -8 -8 Z"
        stroke-linecap="round" stroke-miterlimit="10"></path>
    </g>
    <g transform="translate(88.32754595239496,128.32315356495033) rotate(-2.105156591010779,0,0)">
      <path fill="none" stroke="#000000" paint-order="fill stroke markers" d=" M -8 -8 L 8 -8 L 8 8 L -8 8 L -8 -8 Z"
        stroke-linecap="round" stroke-miterlimit="10"></path>
    </g>
    <g transform="translate(87.73819307515862,148.35949557057754) rotate(1.432243026945045,0,0)">
      <path fill="none" stroke="#000000" paint-order="fill stroke markers" d=" M -8 -8 L 8 -8 L 8 8 L -8 8 L -8 -8 Z"
        stroke-linecap="round" stroke-miterlimit="10"></path>
    </g>
    <g transform="translate(88.29297825356272,167.89755653239666) rotate(-9.038583407144618,0,0)">
      <path fill="none" stroke="#000000" paint-order="fill stroke markers" d=" M -8 -8 L 8 -8 L 8 8 L -8 8 L -8 -8 Z"
        stroke-linecap="round" stroke-miterlimit="10"></path>
    </g>
    <g transform="translate(88.14971508076789,188.1597890520433) rotate(-5.755195387171747,0,0)">
      <path fill="none" stroke="#000000" paint-order="fill stroke markers" d=" M -8 -8 L 8 -8 L 8 8 L -8 8 L -8 -8 Z"
        stroke-linecap="round" stroke-miterlimit="10"></path>
    </g>
    <g transform="translate(87.8012971668818,208.34437143369314) rotate(-0.08348193289134542,0,0)">
      <path fill="none" stroke="#000000" paint-order="fill stroke markers" d=" M -8 -8 L 8 -8 L 8 8 L -8 8 L -8 -8 Z"
        stroke-linecap="round" stroke-miterlimit="10"></path>
    </g>
    <g transform="translate(87.88536520752007,227.58852284975168) rotate(-18.901734414094193,0,0)">
      <path fill="none" stroke="#000000" paint-order="fill stroke markers" d=" M -8 -8 L 8 -8 L 8 8 L -8 8 L -8 -8 Z"
        stroke-linecap="round" stroke-miterlimit="10"></path>
    </g>
    <g transform="translate(88.39272484452121,247.95099569309818) rotate(22.227190629302857,0,0)">
      <path fill="none" stroke="#000000" paint-order="fill stroke markers" d=" M -8 -8 L 8 -8 L 8 8 L -8 8 L -8 -8 Z"
        stroke-linecap="round" stroke-miterlimit="10"></path>
    </g>
    <g transform="translate(108.28724745023186,48.210787072770586) rotate(25.85044585748515,0,0)">
      <path fill="none" stroke="#000000" paint-order="fill stroke markers" d=" M -8 -8 L 8 -8 L 8 8 L -8 8 L -8 -8 Z"
        stroke-linecap="round" stroke-miterlimit="10"></path>
    </g>
    <g transform="translate(107.68997424584269,67.67575714775349) rotate(18.21648109286801,0,0)">
      <path fill="none" stroke="#000000" paint-order="fill stroke markers" d=" M -8 -8 L 8 -8 L 8 8 L -8 8 L -8 -8 Z"
        stroke-linecap="round" stroke-miterlimit="10"></path>
    </g>
    <g transform="translate(108.44836400870983,88.07399082956378) rotate(7.683362568283144,0,0)">
      <path fill="none" stroke="#000000" paint-order="fill stroke markers" d=" M -8 -8 L 8 -8 L 8 8 L -8 8 L -8 -8 Z"
        stroke-linecap="round" stroke-miterlimit="10"></path>
    </g>
    <g transform="translate(107.70333311677868,108.03351263217162) rotate(28.88309741018118,0,0)">
      <path fill="none" stroke="#000000" paint-order="fill stroke markers" d=" M -8 -8 L 8 -8 L 8 8 L -8 8 L -8 -8 Z"
        stroke-linecap="round" stroke-miterlimit="10"></path>
    </g>
    <g transform="translate(107.88321951157286,127.80610960765668) rotate(-23.702751342786886,0,0)">
      <path fill="none" stroke="#000000" paint-order="fill stroke markers" d=" M -8 -8 L 8 -8 L 8 8 L -8 8 L -8 -8 Z"
        stroke-linecap="round" stroke-miterlimit="10"></path>
    </g>
    <g transform="translate(108.1275839318727,147.89863702948625) rotate(12.923250754403947,0,0)">
      <path fill="none" stroke="#000000" paint-order="fill stroke markers" d=" M -8 -8 L 8 -8 L 8 8 L -8 8 L -8 -8 Z"
        stroke-linecap="round" stroke-miterlimit="10"></path>
    </g>
    <g transform="translate(107.5300103167403,168.2084784294767) rotate(-16.8417328871434,0,0)">
      <path fill="none" stroke="#000000" paint-order="fill stroke markers" d=" M -8 -8 L 8 -8 L 8 8 L -8 8 L -8 -8 Z"
        stroke-linecap="round" stroke-miterlimit="10"></path>
    </g>
    <g transform="translate(108.60559303568998,187.93223471279796) rotate(-25.455545018179222,0,0)">
      <path fill="none" stroke="#000000" paint-order="fill stroke markers" d=" M -8 -8 L 8 -8 L 8 8 L -8 8 L -8 -8 Z"
        stroke-linecap="round" stroke-miterlimit="10"></path>
    </g>
    <g transform="translate(108.45118830116746,208.01788113333023) rotate(13.677563134934054,0,0)">
      <path fill="none" stroke="#000000" paint-order="fill stroke markers" d=" M -8 -8 L 8 -8 L 8 8 L -8 8 L -8 -8 Z"
        stroke-linecap="round" stroke-miterlimit="10"></path>
    </g>
    <g transform="translate(107.27887953623171,227.4915266336996) rotate(-13.758982373317028,0,0)">
      <path fill="none" stroke="#000000" paint-order="fill stroke markers" d=" M -8 -8 L 8 -8 L 8 8 L -8 8 L -8 -8 Z"
        stroke-linecap="round" stroke-miterlimit="10"></path>
    </g>
    <g transform="translate(107.33954643436782,247.92172578996497) rotate(25.39393714007198,0,0)">
      <path fill="none" stroke="#000000" paint-order="fill stroke markers" d=" M -8 -8 L 8 -8 L 8 8 L -8 8 L -8 -8 Z"
        stroke-linecap="round" stroke-miterlimit="10"></path>
    </g>
    <g transform="translate(127.235317406983,48.17245170638938) rotate(21.24399761711394,0,0)">
      <path fill="none" stroke="#000000" paint-order="fill stroke markers" d=" M -8 -8 L 8 -8 L 8 8 L -8 8 L -8 -8 Z"
        stroke-linecap="round" stroke-miterlimit="10"></path>
    </g>
    <g transform="translate(128.36335614192754,67.23537399274385) rotate(16.0652334410455,0,0)">
      <path fill="none" stroke="#000000" paint-order="fill stroke markers" d=" M -8 -8 L 8 -8 L 8 8 L -8 8 L -8 -8 Z"
        stroke-linecap="round" stroke-miterlimit="10"></path>
    </g>
    <g transform="translate(128.6360180876922,87.57948194203489) rotate(-6.565157744173775,0,0)">
      <path fill="none" stroke="#000000" paint-order="fill stroke markers" d=" M -8 -8 L 8 -8 L 8 8 L -8 8 L -8 -8 Z"
        stroke-linecap="round" stroke-miterlimit="10"></path>
    </g>
    <g transform="translate(127.73694554702456,107.75439491627019) rotate(-41.69554711468257,0,0)">
      <path fill="none" stroke="#000000" paint-order="fill stroke markers" d=" M -8 -8 L 8 -8 L 8 8 L -8 8 L -8 -8 Z"
        stroke-linecap="round" stroke-miterlimit="10"></path>
    </g>
    <g transform="translate(128.83441721795668,128.7888668341541) rotate(45.36429505745318,0,0)">
      <path fill="none" stroke="#000000" paint-order="fill stroke markers" d=" M -8 -8 L 8 -8 L 8 8 L -8 8 L -8 -8 Z"
        stroke-linecap="round" stroke-miterlimit="10"></path>
    </g>
    <g transform="translate(128.28194947900099,147.78624924219346) rotate(-38.33221354410734,0,0)">
      <path fill="none" stroke="#000000" paint-order="fill stroke markers" d=" M -8 -8 L 8 -8 L 8 8 L -8 8 L -8 -8 Z"
        stroke-linecap="round" stroke-miterlimit="10"></path>
    </g>
    <g transform="translate(127.9032454059985,168.63379909795202) rotate(9.849721857898793,0,0)">
      <path fill="none" stroke="#000000" paint-order="fill stroke markers" d=" M -8 -8 L 8 -8 L 8 8 L -8 8 L -8 -8 Z"
        stroke-linecap="round" stroke-miterlimit="10"></path>
    </g>
    <g transform="translate(127.81994603550919,188.34330753940938) rotate(-20.6899355518985,0,0)">
      <path fill="none" stroke="#000000" paint-order="fill stroke markers" d=" M -8 -8 L 8 -8 L 8 8 L -8 8 L -8 -8 Z"
        stroke-linecap="round" stroke-miterlimit="10"></path>
    </g>
    <g transform="translate(127.2445705238651,207.94267742193708) rotate(-7.7328740117254,0,0)">
      <path fill="none" stroke="#000000" paint-order="fill stroke markers" d=" M -8 -8 L 8 -8 L 8 8 L -8 8 L -8 -8 Z"
        stroke-linecap="round" stroke-miterlimit="10"></path>
    </g>
    <g transform="translate(127.52504981743756,228.17059688538737) rotate(41.72121422192292,0,0)">
      <path fill="none" stroke="#000000" paint-order="fill stroke markers" d=" M -8 -8 L 8 -8 L 8 8 L -8 8 L -8 -8 Z"
        stroke-linecap="round" stroke-miterlimit="10"></path>
    </g>
    <g transform="translate(127.00214620073173,248.57629203567706) rotate(-33.343688182838946,0,0)">
      <path fill="none" stroke="#000000" paint-order="fill stroke markers" d=" M -8 -8 L 8 -8 L 8 8 L -8 8 L -8 -8 Z"
        stroke-linecap="round" stroke-miterlimit="10"></path>
    </g>
    <g transform="translate(147.39270918204468,48.07144648142542) rotate(-14.23016279558771,0,0)">
      <path fill="none" stroke="#000000" paint-order="fill stroke markers" d=" M -8 -8 L 8 -8 L 8 8 L -8 8 L -8 -8 Z"
        stroke-linecap="round" stroke-miterlimit="10"></path>
    </g>
    <g transform="translate(148.09193111633746,67.90957241336916) rotate(-39.08314684598476,0,0)">
      <path fill="none" stroke="#000000" paint-order="fill stroke markers" d=" M -8 -8 L 8 -8 L 8 8 L -8 8 L -8 -8 Z"
        stroke-linecap="round" stroke-miterlimit="10"></path>
    </g>
    <g transform="translate(148.57391873840896,87.82234696490492) rotate(-21.420569032099415,0,0)">
      <path fill="none" stroke="#000000" paint-order="fill stroke markers" d=" M -8 -8 L 8 -8 L 8 8 L -8 8 L -8 -8 Z"
        stroke-linecap="round" stroke-miterlimit="10"></path>
    </g>
    <g transform="translate(148.91267115618854,108.7762927821571) rotate(3.733695993859627,0,0)">
      <path fill="none" stroke="#000000" paint-order="fill stroke markers" d=" M -8 -8 L 8 -8 L 8 8 L -8 8 L -8 -8 Z"
        stroke-linecap="round" stroke-miterlimit="10"></path>
    </g>
    <g transform="translate(147.21600867580483,129.06649452507838) rotate(-42.37069580397297,0,0)">
      <path fill="none" stroke="#000000" paint-order="fill stroke markers" d=" M -8 -8 L 8 -8 L 8 8 L -8 8 L -8 -8 Z"
        stroke-linecap="round" stroke-miterlimit="10"></path>
    </g>
    <g transform="translate(147.11310634789686,149.25704795688867) rotate(-64.39899708758134,0,0)">
      <path fill="none" stroke="#000000" paint-order="fill stroke markers" d=" M -8 -8 L 8 -8 L 8 8 L -8 8 L -8 -8 Z"
        stroke-linecap="round" stroke-miterlimit="10"></path>
    </g>
    <g transform="translate(147.39032287425212,168.8727302449875) rotate(6.245554311485336,0,0)">
      <path fill="none" stroke="#000000" paint-order="fill stroke markers" d=" M -8 -8 L 8 -8 L 8 8 L -8 8 L -8 -8 Z"
        stroke-linecap="round" stroke-miterlimit="10"></path>
    </g>
    <g transform="translate(149.05385731616246,188.95233368791136) rotate(-68.57196414603294,0,0)">
      <path fill="none" stroke="#000000" paint-order="fill stroke markers" d=" M -8 -8 L 8 -8 L 8 8 L -8 8 L -8 -8 Z"
        stroke-linecap="round" stroke-miterlimit="10"></path>
    </g>
    <g transform="translate(149.21158075836038,207.14280510942297) rotate(64.57764739891434,0,0)">
      <path fill="none" stroke="#000000" paint-order="fill stroke markers" d=" M -8 -8 L 8 -8 L 8 8 L -8 8 L -8 -8 Z"
        stroke-linecap="round" stroke-miterlimit="10"></path>
    </g>
    <g transform="translate(146.76847780340276,226.80833515606452) rotate(45.95709580475953,0,0)">
      <path fill="none" stroke="#000000" paint-order="fill stroke markers" d=" M -8 -8 L 8 -8 L 8 8 L -8 8 L -8 -8 Z"
        stroke-linecap="round" stroke-miterlimit="10"></path>
    </g>
    <g transform="translate(148.24712838738466,247.9495981599931) rotate(-74.0594508668225,0,0)">
      <path fill="none" stroke="#000000" paint-order="fill stroke markers" d=" M -8 -8 L 8 -8 L 8 8 L -8 8 L -8 -8 Z"
        stroke-linecap="round" stroke-miterlimit="10"></path>
    </g>
    <g transform="translate(169.48346450733274,46.64075681248884) rotate(50.331679981823214,0,0)">
      <path fill="none" stroke="#000000" paint-order="fill stroke markers" d=" M -8 -8 L 8 -8 L 8 8 L -8 8 L -8 -8 Z"
        stroke-linecap="round" stroke-miterlimit="10"></path>
    </g>
    <g transform="translate(166.80443277012384,67.87246496162828) rotate(59.398914891453295,0,0)">
      <path fill="none" stroke="#000000" paint-order="fill stroke markers" d=" M -8 -8 L 8 -8 L 8 8 L -8 8 L -8 -8 Z"
        stroke-linecap="round" stroke-miterlimit="10"></path>
    </g>
    <g transform="translate(169.27845081536532,86.98211383527465) rotate(76.77451615934825,0,0)">
      <path fill="none" stroke="#000000" paint-order="fill stroke markers" d=" M -8 -8 L 8 -8 L 8 8 L -8 8 L -8 -8 Z"
        stroke-linecap="round" stroke-miterlimit="10"></path>
    </g>
    <g transform="translate(168.80125988620358,108.06711645880584) rotate(63.80739792978361,0,0)">
      <path fill="none" stroke="#000000" paint-order="fill stroke markers" d=" M -8 -8 L 8 -8 L 8 8 L -8 8 L -8 -8 Z"
        stroke-linecap="round" stroke-miterlimit="10"></path>
    </g>
    <g transform="translate(167.84706511382953,126.34718108578033) rotate(-41.37780626818492,0,0)">
      <path fill="none" stroke="#000000" paint-order="fill stroke markers" d=" M -8 -8 L 8 -8 L 8 8 L -8 8 L -8 -8 Z"
        stroke-linecap="round" stroke-miterlimit="10"></path>
    </g>
    <g transform="translate(167.95750117085316,146.82435624481576) rotate(-35.85508874367626,0,0)">
      <path fill="none" stroke="#000000" paint-order="fill stroke markers" d=" M -8 -8 L 8 -8 L 8 8 L -8 8 L -8 -8 Z"
        stroke-linecap="round" stroke-miterlimit="10"></path>
    </g>
    <g transform="translate(168.65404154038023,167.04617083942608) rotate(64.74752318952358,0,0)">
      <path fill="none" stroke="#000000" paint-order="fill stroke markers" d=" M -8 -8 L 8 -8 L 8 8 L -8 8 L -8 -8 Z"
        stroke-linecap="round" stroke-miterlimit="10"></path>
    </g>
    <g transform="translate(166.6388894156836,187.01836087649022) rotate(-29.264215739386017,0,0)">
      <path fill="none" stroke="#000000" paint-order="fill stroke markers" d=" M -8 -8 L 8 -8 L 8 8 L -8 8 L -8 -8 Z"
        stroke-linecap="round" stroke-miterlimit="10"></path>
    </g>
    <g transform="translate(167.75564149049663,209.05832224350303) rotate(-87.66508770925162,0,0)">
      <path fill="none" stroke="#000000" paint-order="fill stroke markers" d=" M -8 -8 L 8 -8 L 8 8 L -8 8 L -8 -8 Z"
        stroke-linecap="round" stroke-miterlimit="10"></path>
    </g>
    <g transform="translate(169.30385632374433,229.29461242646033) rotate(-50.71011186053511,0,0)">
      <path fill="none" stroke="#000000" paint-order="fill stroke markers" d=" M -8 -8 L 8 -8 L 8 8 L -8 8 L -8 -8 Z"
        stroke-linecap="round" stroke-miterlimit="10"></path>
    </g>
    <g transform="translate(167.71034370447,247.10903720982319) rotate(21.839077513407418,0,0)">
      <path fill="none" stroke="#000000" paint-order="fill stroke markers" d=" M -8 -8 L 8 -8 L 8 8 L -8 8 L -8 -8 Z"
        stroke-linecap="round" stroke-miterlimit="10"></path>
    </g>
    <g transform="translate(188.14322415577138,48.860680146068866) rotate(-37.31631256533778,0,0)">
      <path fill="none" stroke="#000000" paint-order="fill stroke markers" d=" M -8 -8 L 8 -8 L 8 8 L -8 8 L -8 -8 Z"
        stroke-linecap="round" stroke-miterlimit="10"></path>
    </g>
    <g transform="translate(186.67847119442558,69.43888468162282) rotate(62.28035353083123,0,0)">
      <path fill="none" stroke="#000000" paint-order="fill stroke markers" d=" M -8 -8 L 8 -8 L 8 8 L -8 8 L -8 -8 Z"
        stroke-linecap="round" stroke-miterlimit="10"></path>
    </g>
    <g transform="translate(188.51971224616594,86.1875576008494) rotate(70.69091062824782,0,0)">
      <path fill="none" stroke="#000000" paint-order="fill stroke markers" d=" M -8 -8 L 8 -8 L 8 8 L -8 8 L -8 -8 Z"
        stroke-linecap="round" stroke-miterlimit="10"></path>
    </g>
    <g transform="translate(187.7849998558968,108.40909737862233) rotate(71.01965474945654,0,0)">
      <path fill="none" stroke="#000000" paint-order="fill stroke markers" d=" M -8 -8 L 8 -8 L 8 8 L -8 8 L -8 -8 Z"
        stroke-linecap="round" stroke-miterlimit="10"></path>
    </g>
    <g transform="translate(186.31822893097984,127.73376357329948) rotate(-102.96360322269629,0,0)">
      <path fill="none" stroke="#000000" paint-order="fill stroke markers" d=" M -8 -8 L 8 -8 L 8 8 L -8 8 L -8 -8 Z"
        stroke-linecap="round" stroke-miterlimit="10"></path>
    </g>
    <g transform="translate(189.40387007022608,146.30855136436125) rotate(38.29806428954112,0,0)">
      <path fill="none" stroke="#000000" paint-order="fill stroke markers" d=" M -8 -8 L 8 -8 L 8 8 L -8 8 L -8 -8 Z"
        stroke-linecap="round" stroke-miterlimit="10"></path>
    </g>
    <g transform="translate(188.00242221810373,168.05989530917338) rotate(92.07666236655996,0,0)">
      <path fill="none" stroke="#000000" paint-order="fill stroke markers" d=" M -8 -8 L 8 -8 L 8 8 L -8 8 L -8 -8 Z"
        stroke-linecap="round" stroke-miterlimit="10"></path>
    </g>
    <g transform="translate(188.42180951917888,186.37616387131197) rotate(3.345065281507488,0,0)">
      <path fill="none" stroke="#000000" paint-order="fill stroke markers" d=" M -8 -8 L 8 -8 L 8 8 L -8 8 L -8 -8 Z"
        stroke-linecap="round" stroke-miterlimit="10"></path>
    </g>
    <g transform="translate(190.06799302507696,208.30756122513185) rotate(78.93017848805863,0,0)">
      <path fill="none" stroke="#000000" paint-order="fill stroke markers" d=" M -8 -8 L 8 -8 L 8 8 L -8 8 L -8 -8 Z"
        stroke-linecap="round" stroke-miterlimit="10"></path>
    </g>
    <g transform="translate(190.3686464378055,228.25342119364413) rotate(112.2559578638992,0,0)">
      <path fill="none" stroke="#000000" paint-order="fill stroke markers" d=" M -8 -8 L 8 -8 L 8 8 L -8 8 L -8 -8 Z"
        stroke-linecap="round" stroke-miterlimit="10"></path>
    </g>
    <g transform="translate(189.83889676106503,247.66376396611676) rotate(-99.62930757418756,0,0)">
      <path fill="none" stroke="#000000" paint-order="fill stroke markers" d=" M -8 -8 L 8 -8 L 8 8 L -8 8 L -8 -8 Z"
        stroke-linecap="round" stroke-miterlimit="10"></path>
    </g>
    <g transform="translate(205.95203070699455,46.52341781931052) rotate(-56.636291702215104,0,0)">
      <path fill="none" stroke="#000000" paint-order="fill stroke markers" d=" M -8 -8 L 8 -8 L 8 8 L -8 8 L -8 -8 Z"
        stroke-linecap="round" stroke-miterlimit="10"></path>
    </g>
    <g transform="translate(209.93898489409995,66.930179890904) rotate(-15.060875597358278,0,0)">
      <path fill="none" stroke="#000000" paint-order="fill stroke markers" d=" M -8 -8 L 8 -8 L 8 8 L -8 8 L -8 -8 Z"
        stroke-linecap="round" stroke-miterlimit="10"></path>
    </g>
    <g transform="translate(207.9971445202034,86.24751000170166) rotate(-86.99266264100012,0,0)">
      <path fill="none" stroke="#000000" paint-order="fill stroke markers" d=" M -8 -8 L 8 -8 L 8 8 L -8 8 L -8 -8 Z"
        stroke-linecap="round" stroke-miterlimit="10"></path>
    </g>
    <g transform="translate(207.29338294215214,108.18804532715977) rotate(115.9350043268517,0,0)">
      <path fill="none" stroke="#000000" paint-order="fill stroke markers" d=" M -8 -8 L 8 -8 L 8 8 L -8 8 L -8 -8 Z"
        stroke-linecap="round" stroke-miterlimit="10"></path>
    </g>
    <g transform="translate(207.8200120552017,126.8745812939803) rotate(130.18477203766628,0,0)">
      <path fill="none" stroke="#000000" paint-order="fill stroke markers" d=" M -8 -8 L 8 -8 L 8 8 L -8 8 L -8 -8 Z"
        stroke-linecap="round" stroke-miterlimit="10"></path>
    </g>
    <g transform="translate(210.39903179825168,149.28734227595962) rotate(58.25587152418723,0,0)">
      <path fill="none" stroke="#000000" paint-order="fill stroke markers" d=" M -8 -8 L 8 -8 L 8 8 L -8 8 L -8 -8 Z"
        stroke-linecap="round" stroke-miterlimit="10"></path>
    </g>
    <g transform="translate(210.28150644575584,169.4897541891349) rotate(-42.88023998704321,0,0)">
      <path fill="none" stroke="#000000" paint-order="fill stroke markers" d=" M -8 -8 L 8 -8 L 8 8 L -8 8 L -8 -8 Z"
        stroke-linecap="round" stroke-miterlimit="10"></path>
    </g>
    <g transform="translate(206.56398261497628,185.29994334174987) rotate(27.332666874570094,0,0)">
      <path fill="none" stroke="#000000" paint-order="fill stroke markers" d=" M -8 -8 L 8 -8 L 8 8 L -8 8 L -8 -8 Z"
        stroke-linecap="round" stroke-miterlimit="10"></path>
    </g>
    <g transform="translate(206.67207830611594,205.24923714279078) rotate(10.709896760131612,0,0)">
      <path fill="none" stroke="#000000" paint-order="fill stroke markers" d=" M -8 -8 L 8 -8 L 8 8 L -8 8 L -8 -8 Z"
        stroke-linecap="round" stroke-miterlimit="10"></path>
    </g>
    <g transform="translate(210.4086414863003,228.75043477627003) rotate(-86.72412027783611,0,0)">
      <path fill="none" stroke="#000000" paint-order="fill stroke markers" d=" M -8 -8 L 8 -8 L 8 8 L -8 8 L -8 -8 Z"
        stroke-linecap="round" stroke-miterlimit="10"></path>
    </g>
    <g transform="translate(205.7384241662765,247.27394093158696) rotate(-109.55496744648215,0,0)">
      <path fill="none" stroke="#000000" paint-order="fill stroke markers" d=" M -8 -8 L 8 -8 L 8 8 L -8 8 L -8 -8 Z"
        stroke-linecap="round" stroke-miterlimit="10"></path>
    </g>
    <g transform="translate(225.14620253586057,45.69889463070546) rotate(55.88626033787111,0,0)">
      <path fill="none" stroke="#000000" paint-order="fill stroke markers" d=" M -8 -8 L 8 -8 L 8 8 L -8 8 L -8 -8 Z"
        stroke-linecap="round" stroke-miterlimit="10"></path>
    </g>
    <g transform="translate(228.98504894938074,67.85824038376626) rotate(5.045520396994505,0,0)">
      <path fill="none" stroke="#000000" paint-order="fill stroke markers" d=" M -8 -8 L 8 -8 L 8 8 L -8 8 L -8 -8 Z"
        stroke-linecap="round" stroke-miterlimit="10"></path>
    </g>
    <g transform="translate(230.32452305281038,86.67908423638109) rotate(137.74218462899609,0,0)">
      <path fill="none" stroke="#000000" paint-order="fill stroke markers" d=" M -8 -8 L 8 -8 L 8 8 L -8 8 L -8 -8 Z"
        stroke-linecap="round" stroke-miterlimit="10"></path>
    </g>
    <g transform="translate(228.44527320330434,109.45569791198179) rotate(95.25992865925235,0,0)">
      <path fill="none" stroke="#000000" paint-order="fill stroke markers" d=" M -8 -8 L 8 -8 L 8 8 L -8 8 L -8 -8 Z"
        stroke-linecap="round" stroke-miterlimit="10"></path>
    </g>
    <g transform="translate(230.89645395307292,126.48488550375878) rotate(26.724979387338948,0,0)">
      <path fill="none" stroke="#000000" paint-order="fill stroke markers" d=" M -8 -8 L 8 -8 L 8 8 L -8 8 L -8 -8 Z"
        stroke-linecap="round" stroke-miterlimit="10"></path>
    </g>
    <g transform="translate(227.09400417392118,147.27967526702207) rotate(-43.52479789576049,0,0)">
      <path fill="none" stroke="#000000" paint-order="fill stroke markers" d=" M -8 -8 L 8 -8 L 8 8 L -8 8 L -8 -8 Z"
        stroke-linecap="round" stroke-miterlimit="10"></path>
    </g>
    <g transform="translate(225.84150964077543,167.58184619424867) rotate(164.65993854769934,0,0)">
      <path fill="none" stroke="#000000" paint-order="fill stroke markers" d=" M -8 -8 L 8 -8 L 8 8 L -8 8 L -8 -8 Z"
        stroke-linecap="round" stroke-miterlimit="10"></path>
    </g>
    <g transform="translate(226.0951426805832,190.66254811307394) rotate(-35.93988734051368,0,0)">
      <path fill="none" stroke="#000000" paint-order="fill stroke markers" d=" M -8 -8 L 8 -8 L 8 8 L -8 8 L -8 -8 Z"
        stroke-linecap="round" stroke-miterlimit="10"></path>
    </g>
    <g transform="translate(226.35646685169596,205.86759822323955) rotate(154.85492767696257,0,0)">
      <path fill="none" stroke="#000000" paint-order="fill stroke markers" d=" M -8 -8 L 8 -8 L 8 8 L -8 8 L -8 -8 Z"
        stroke-linecap="round" stroke-miterlimit="10"></path>
    </g>
    <g transform="translate(226.5028738223663,224.6677450386088) rotate(24.366609295612676,0,0)">
      <path fill="none" stroke="#000000" paint-order="fill stroke markers" d=" M -8 -8 L 8 -8 L 8 8 L -8 8 L -8 -8 Z"
        stroke-linecap="round" stroke-miterlimit="10"></path>
    </g>
    <g transform="translate(230.29810913569986,246.5408462636843) rotate(53.464925918920244,0,0)">
      <path fill="none" stroke="#000000" paint-order="fill stroke markers" d=" M -8 -8 L 8 -8 L 8 8 L -8 8 L -8 -8 Z"
        stroke-linecap="round" stroke-miterlimit="10"></path>
    </g>
    <g transform="translate(247.35296477732177,45.25471482883277) rotate(-174.69504683443256,0,0)">
      <path fill="none" stroke="#000000" paint-order="fill stroke markers" d=" M -8 -8 L 8 -8 L 8 8 L -8 8 L -8 -8 Z"
        stroke-linecap="round" stroke-miterlimit="10"></path>
    </g>
    <g transform="translate(247.52934149226596,69.81447659153405) rotate(40.0758337719733,0,0)">
      <path fill="none" stroke="#000000" paint-order="fill stroke markers" d=" M -8 -8 L 8 -8 L 8 8 L -8 8 L -8 -8 Z"
        stroke-linecap="round" stroke-miterlimit="10"></path>
    </g>
    <g transform="translate(250.86315631801807,90.9482371618788) rotate(88.88746363011137,0,0)">
      <path fill="none" stroke="#000000" paint-order="fill stroke markers" d=" M -8 -8 L 8 -8 L 8 8 L -8 8 L -8 -8 Z"
        stroke-linecap="round" stroke-miterlimit="10"></path>
    </g>
    <g transform="translate(247.94324991305692,111.3296641625621) rotate(186.38278563999387,0,0)">
      <path fill="none" stroke="#000000" paint-order="fill stroke markers" d=" M -8 -8 L 8 -8 L 8 8 L -8 8 L -8 -8 Z"
        stroke-linecap="round" stroke-miterlimit="10"></path>
    </g>
    <g transform="translate(245.21025913975177,127.28002144675625) rotate(-189.04080610063366,0,0)">
      <path fill="none" stroke="#000000" paint-order="fill stroke markers" d=" M -8 -8 L 8 -8 L 8 8 L -8 8 L -8 -8 Z"
        stroke-linecap="round" stroke-miterlimit="10"></path>
    </g>
    <g transform="translate(244.74491679477458,150.4891421468447) rotate(160.3254341319821,0,0)">
      <path fill="none" stroke="#000000" paint-order="fill stroke markers" d=" M -8 -8 L 8 -8 L 8 8 L -8 8 L -8 -8 Z"
        stroke-linecap="round" stroke-miterlimit="10"></path>
    </g>
    <g transform="translate(249.05926491946732,166.71294581336045) rotate(-147.05510122440606,0,0)">
      <path fill="none" stroke="#000000" paint-order="fill stroke markers" d=" M -8 -8 L 8 -8 L 8 8 L -8 8 L -8 -8 Z"
        stroke-linecap="round" stroke-miterlimit="10"></path>
    </g>
    <g transform="translate(246.0401789699851,191.52071810556308) rotate(138.42855175622293,0,0)">
      <path fill="none" stroke="#000000" paint-order="fill stroke markers" d=" M -8 -8 L 8 -8 L 8 8 L -8 8 L -8 -8 Z"
        stroke-linecap="round" stroke-miterlimit="10"></path>
    </g>
    <g transform="translate(244.28800708140346,207.76062878374557) rotate(76.87978667032161,0,0)">
      <path fill="none" stroke="#000000" paint-order="fill stroke markers" d=" M -8 -8 L 8 -8 L 8 8 L -8 8 L -8 -8 Z"
        stroke-linecap="round" stroke-miterlimit="10"></path>
    </g>
    <g transform="translate(245.12985527646927,232.02020261424903) rotate(44.52449123166306,0,0)">
      <path fill="none" stroke="#000000" paint-order="fill stroke markers" d=" M -8 -8 L 8 -8 L 8 8 L -8 8 L -8 -8 Z"
        stroke-linecap="round" stroke-miterlimit="10"></path>
    </g>
    <g transform="translate(251.90922913597782,246.64267145294784) rotate(-78.56907332540399,0,0)">
      <path fill="none" stroke="#000000" paint-order="fill stroke markers" d=" M -8 -8 L 8 -8 L 8 8 L -8 8 L -8 -8 Z"
        stroke-linecap="round" stroke-miterlimit="10"></path>
    </g>
    <g transform="translate(270.69935641964776,44.15469171867753) rotate(117.43485205030551,0,0)">
      <path fill="none" stroke="#000000" paint-order="fill stroke markers" d=" M -8 -8 L 8 -8 L 8 8 L -8 8 L -8 -8 Z"
        stroke-linecap="round" stroke-miterlimit="10"></path>
    </g>
    <g transform="translate(272.31967655692677,65.88991577756583) rotate(-93.64439865268628,0,0)">
      <path fill="none" stroke="#000000" paint-order="fill stroke markers" d=" M -8 -8 L 8 -8 L 8 8 L -8 8 L -8 -8 Z"
        stroke-linecap="round" stroke-miterlimit="10"></path>
    </g>
    <g transform="translate(272.38037786622095,89.28103167723494) rotate(98.48751168677171,0,0)">
      <path fill="none" stroke="#000000" paint-order="fill stroke markers" d=" M -8 -8 L 8 -8 L 8 8 L -8 8 L -8 -8 Z"
        stroke-linecap="round" stroke-miterlimit="10"></path>
    </g>
    <g transform="translate(264.16623131590103,109.32371241963178) rotate(93.11079455528274,0,0)">
      <path fill="none" stroke="#000000" paint-order="fill stroke markers" d=" M -8 -8 L 8 -8 L 8 8 L -8 8 L -8 -8 Z"
        stroke-linecap="round" stroke-miterlimit="10"></path>
    </g>
    <g transform="translate(264.0039438886409,124.69933646494809) rotate(10.136581652537359,0,0)">
      <path fill="none" stroke="#000000" paint-order="fill stroke markers" d=" M -8 -8 L 8 -8 L 8 8 L -8 8 L -8 -8 Z"
        stroke-linecap="round" stroke-miterlimit="10"></path>
    </g>
    <g transform="translate(267.72411121624333,145.8972156772419) rotate(-124.59948368881237,0,0)">
      <path fill="none" stroke="#000000" paint-order="fill stroke markers" d=" M -8 -8 L 8 -8 L 8 8 L -8 8 L -8 -8 Z"
        stroke-linecap="round" stroke-miterlimit="10"></path>
    </g>
    <g transform="translate(271.48267680263535,170.82138630848047) rotate(-56.401901439082735,0,0)">
      <path fill="none" stroke="#000000" paint-order="fill stroke markers" d=" M -8 -8 L 8 -8 L 8 8 L -8 8 L -8 -8 Z"
        stroke-linecap="round" stroke-miterlimit="10"></path>
    </g>
    <g transform="translate(264.93650120391453,189.90206894306908) rotate(-232.32377550751886,0,0)">
      <path fill="none" stroke="#000000" paint-order="fill stroke markers" d=" M -8 -8 L 8 -8 L 8 8 L -8 8 L -8 -8 Z"
        stroke-linecap="round" stroke-miterlimit="10"></path>
    </g>
    <g transform="translate(267.9842682521631,206.57407370962918) rotate(-68.92325674838634,0,0)">
      <path fill="none" stroke="#000000" paint-order="fill stroke markers" d=" M -8 -8 L 8 -8 L 8 8 L -8 8 L -8 -8 Z"
        stroke-linecap="round" stroke-miterlimit="10"></path>
    </g>
    <g transform="translate(268.38768478069125,231.91088124377845) rotate(-168.07814503785042,0,0)">
      <path fill="none" stroke="#000000" paint-order="fill stroke markers" d=" M -8 -8 L 8 -8 L 8 8 L -8 8 L -8 -8 Z"
        stroke-linecap="round" stroke-miterlimit="10"></path>
    </g>
    <g transform="translate(270.3798834568344,247.67258715347157) rotate(80.67665121950637,0,0)">
      <path fill="none" stroke="#000000" paint-order="fill stroke markers" d=" M -8 -8 L 8 -8 L 8 8 L -8 8 L -8 -8 Z"
        stroke-linecap="round" stroke-miterlimit="10"></path>
    </g>
    <g transform="translate(291.42841675540524,46.165108340324416) rotate(-137.05577025275102,0,0)">
      <path fill="none" stroke="#000000" paint-order="fill stroke markers" d=" M -8 -8 L 8 -8 L 8 8 L -8 8 L -8 -8 Z"
        stroke-linecap="round" stroke-miterlimit="10"></path>
    </g>
    <g transform="translate(292.20145019574016,69.49776152828377) rotate(-219.94807216845277,0,0)">
      <path fill="none" stroke="#000000" paint-order="fill stroke markers" d=" M -8 -8 L 8 -8 L 8 8 L -8 8 L -8 -8 Z"
        stroke-linecap="round" stroke-miterlimit="10"></path>
    </g>
    <g transform="translate(289.2242723370694,84.31434938583736) rotate(-55.91810327791482,0,0)">
      <path fill="none" stroke="#000000" paint-order="fill stroke markers" d=" M -8 -8 L 8 -8 L 8 8 L -8 8 L -8 -8 Z"
        stroke-linecap="round" stroke-miterlimit="10"></path>
    </g>
    <g transform="translate(291.571241941057,111.6928504889214) rotate(95.5746154405502,0,0)">
      <path fill="none" stroke="#000000" paint-order="fill stroke markers" d=" M -8 -8 L 8 -8 L 8 8 L -8 8 L -8 -8 Z"
        stroke-linecap="round" stroke-miterlimit="10"></path>
    </g>
    <g transform="translate(290.33598599421873,126.63053830916652) rotate(-4.401488260335952,0,0)">
      <path fill="none" stroke="#000000" paint-order="fill stroke markers" d=" M -8 -8 L 8 -8 L 8 8 L -8 8 L -8 -8 Z"
        stroke-linecap="round" stroke-miterlimit="10"></path>
    </g>
    <g transform="translate(283.774361383978,153.20350035198902) rotate(-19.48472527026226,0,0)">
      <path fill="none" stroke="#000000" paint-order="fill stroke markers" d=" M -8 -8 L 8 -8 L 8 8 L -8 8 L -8 -8 Z"
        stroke-linecap="round" stroke-miterlimit="10"></path>
    </g>
    <g transform="translate(291.9031224487352,170.80224818462486) rotate(-42.53575180640443,0,0)">
      <path fill="none" stroke="#000000" paint-order="fill stroke markers" d=" M -8 -8 L 8 -8 L 8 8 L -8 8 L -8 -8 Z"
        stroke-linecap="round" stroke-miterlimit="10"></path>
    </g>
    <g transform="translate(292.2980671789486,186.87723387208936) rotate(-226.45506481931181,0,0)">
      <path fill="none" stroke="#000000" paint-order="fill stroke markers" d=" M -8 -8 L 8 -8 L 8 8 L -8 8 L -8 -8 Z"
        stroke-linecap="round" stroke-miterlimit="10"></path>
    </g>
    <g transform="translate(292.49830368913024,212.55833449242175) rotate(-273.30725614588675,0,0)">
      <path fill="none" stroke="#000000" paint-order="fill stroke markers" d=" M -8 -8 L 8 -8 L 8 8 L -8 8 L -8 -8 Z"
        stroke-linecap="round" stroke-miterlimit="10"></path>
    </g>
    <g transform="translate(291.6046229466701,228.75836198101752) rotate(88.56315871362291,0,0)">
      <path fill="none" stroke="#000000" paint-order="fill stroke markers" d=" M -8 -8 L 8 -8 L 8 8 L -8 8 L -8 -8 Z"
        stroke-linecap="round" stroke-miterlimit="10"></path>
    </g>
    <g transform="translate(286.33943907388937,243.81611977416296) rotate(-6.747207211676766,0,0)">
      <path fill="none" stroke="#000000" paint-order="fill stroke markers" d=" M -8 -8 L 8 -8 L 8 8 L -8 8 L -8 -8 Z"
        stroke-linecap="round" stroke-miterlimit="10"></path>
    </g>
    <g transform="translate(313.39269469206414,50.183896016000396) rotate(-54.85066850654974,0,0)">
      <path fill="none" stroke="#000000" paint-order="fill stroke markers" d=" M -8 -8 L 8 -8 L 8 8 L -8 8 L -8 -8 Z"
        stroke-linecap="round" stroke-miterlimit="10"></path>
    </g>
    <g transform="translate(304.3393505428575,70.96541485558964) rotate(-125.19486239676294,0,0)">
      <path fill="none" stroke="#000000" paint-order="fill stroke markers" d=" M -8 -8 L 8 -8 L 8 8 L -8 8 L -8 -8 Z"
        stroke-linecap="round" stroke-miterlimit="10"></path>
    </g>
    <g transform="translate(309.5141927354749,90.9530006211003) rotate(278.4449428489206,0,0)">
      <path fill="none" stroke="#000000" paint-order="fill stroke markers" d=" M -8 -8 L 8 -8 L 8 8 L -8 8 L -8 -8 Z"
        stroke-linecap="round" stroke-miterlimit="10"></path>
    </g>
    <g transform="translate(312.6900762107767,110.57762060388063) rotate(15.414845341243451,0,0)">
      <path fill="none" stroke="#000000" paint-order="fill stroke markers" d=" M -8 -8 L 8 -8 L 8 8 L -8 8 L -8 -8 Z"
        stroke-linecap="round" stroke-miterlimit="10"></path>
    </g>
    <g transform="translate(313.02217572544595,121.99257247298199) rotate(-41.10691656707655,0,0)">
      <path fill="none" stroke="#000000" paint-order="fill stroke markers" d=" M -8 -8 L 8 -8 L 8 8 L -8 8 L -8 -8 Z"
        stroke-linecap="round" stroke-miterlimit="10"></path>
    </g>
    <g transform="translate(313.1658522544861,148.56118737651528) rotate(-78.4890977468551,0,0)">
      <path fill="none" stroke="#000000" paint-order="fill stroke markers" d=" M -8 -8 L 8 -8 L 8 8 L -8 8 L -8 -8 Z"
        stroke-linecap="round" stroke-miterlimit="10"></path>
    </g>
    <g transform="translate(305.5906299841957,168.20308762082357) rotate(-104.04507465333846,0,0)">
      <path fill="none" stroke="#000000" paint-order="fill stroke markers" d=" M -8 -8 L 8 -8 L 8 8 L -8 8 L -8 -8 Z"
        stroke-linecap="round" stroke-miterlimit="10"></path>
    </g>
    <g transform="translate(307.33186600006826,189.3184579187075) rotate(186.2999113571247,0,0)">
      <path fill="none" stroke="#000000" paint-order="fill stroke markers" d=" M -8 -8 L 8 -8 L 8 8 L -8 8 L -8 -8 Z"
        stroke-linecap="round" stroke-miterlimit="10"></path>
    </g>
    <g transform="translate(313.45875918667514,204.24531961086237) rotate(-106.33877729049496,0,0)">
      <path fill="none" stroke="#000000" paint-order="fill stroke markers" d=" M -8 -8 L 8 -8 L 8 8 L -8 8 L -8 -8 Z"
        stroke-linecap="round" stroke-miterlimit="10"></path>
    </g>
    <g transform="translate(305.72871956250333,231.69044365493323) rotate(187.45957918717946,0,0)">
      <path fill="none" stroke="#000000" paint-order="fill stroke markers" d=" M -8 -8 L 8 -8 L 8 8 L -8 8 L -8 -8 Z"
        stroke-linecap="round" stroke-miterlimit="10"></path>
    </g>
    <g transform="translate(307.98888318740836,248.52518543686074) rotate(-298.95312533040016,0,0)">
      <path fill="none" stroke="#000000" paint-order="fill stroke markers" d=" M -8 -8 L 8 -8 L 8 8 L -8 8 L -8 -8 Z"
        stroke-linecap="round" stroke-miterlimit="10"></path>
    </g>
    <g transform="translate(333.63889106947624,50.844920701783735) rotate(-211.84634403793237,0,0)">
      <path fill="none" stroke="#000000" paint-order="fill stroke markers" d=" M -8 -8 L 8 -8 L 8 8 L -8 8 L -8 -8 Z"
        stroke-linecap="round" stroke-miterlimit="10"></path>
    </g>
    <g transform="translate(327.550561285245,73.4924453496964) rotate(202.6680555881459,0,0)">
      <path fill="none" stroke="#000000" paint-order="fill stroke markers" d=" M -8 -8 L 8 -8 L 8 8 L -8 8 L -8 -8 Z"
        stroke-linecap="round" stroke-miterlimit="10"></path>
    </g>
    <g transform="translate(326.08634681435007,85.40779813971349) rotate(-250.09147551741964,0,0)">
      <path fill="none" stroke="#000000" paint-order="fill stroke markers" d=" M -8 -8 L 8 -8 L 8 8 L -8 8 L -8 -8 Z"
        stroke-linecap="round" stroke-miterlimit="10"></path>
    </g>
    <g transform="translate(323.02022120689065,111.96292527904635) rotate(-184.82857713527434,0,0)">
      <path fill="none" stroke="#000000" paint-order="fill stroke markers" d=" M -8 -8 L 8 -8 L 8 8 L -8 8 L -8 -8 Z"
        stroke-linecap="round" stroke-miterlimit="10"></path>
    </g>
    <g transform="translate(327.56142354886583,128.89536432029612) rotate(250.3051454302488,0,0)">
      <path fill="none" stroke="#000000" paint-order="fill stroke markers" d=" M -8 -8 L 8 -8 L 8 8 L -8 8 L -8 -8 Z"
        stroke-linecap="round" stroke-miterlimit="10"></path>
    </g>
    <g transform="translate(329.14767875799004,149.7900483989626) rotate(324.5606186442503,0,0)">
      <path fill="none" stroke="#000000" paint-order="fill stroke markers" d=" M -8 -8 L 8 -8 L 8 8 L -8 8 L -8 -8 Z"
        stroke-linecap="round" stroke-miterlimit="10"></path>
    </g>
    <g transform="translate(335.1028253709536,161.3090557943605) rotate(-238.69783910286895,0,0)">
      <path fill="none" stroke="#000000" paint-order="fill stroke markers" d=" M -8 -8 L 8 -8 L 8 8 L -8 8 L -8 -8 Z"
        stroke-linecap="round" stroke-miterlimit="10"></path>
    </g>
    <g transform="translate(330.89948881773364,190.29632166336577) rotate(203.388126371412,0,0)">
      <path fill="none" stroke="#000000" paint-order="fill stroke markers" d=" M -8 -8 L 8 -8 L 8 8 L -8 8 L -8 -8 Z"
        stroke-linecap="round" stroke-miterlimit="10"></path>
    </g>
    <g transform="translate(324.09184227661,214.45014623981785) rotate(262.9271340363941,0,0)">
      <path fill="none" stroke="#000000" paint-order="fill stroke markers" d=" M -8 -8 L 8 -8 L 8 8 L -8 8 L -8 -8 Z"
        stroke-linecap="round" stroke-miterlimit="10"></path>
    </g>
    <g transform="translate(328.0354132717473,224.36815807264142) rotate(-189.90527222010843,0,0)">
      <path fill="none" stroke="#000000" paint-order="fill stroke markers" d=" M -8 -8 L 8 -8 L 8 8 L -8 8 L -8 -8 Z"
        stroke-linecap="round" stroke-miterlimit="10"></path>
    </g>
    <g transform="translate(327.9671946796345,243.25989518939096) rotate(-164.90049876711618,0,0)">
      <path fill="none" stroke="#000000" paint-order="fill stroke markers" d=" M -8 -8 L 8 -8 L 8 8 L -8 8 L -8 -8 Z"
        stroke-linecap="round" stroke-miterlimit="10"></path>
    </g>
    <g transform="translate(351.42840524531255,40.938731007004556) rotate(-330.51527109414906,0,0)">
      <path fill="none" stroke="#000000" paint-order="fill stroke markers" d=" M -8 -8 L 8 -8 L 8 8 L -8 8 L -8 -8 Z"
        stroke-linecap="round" stroke-miterlimit="10"></path>
    </g>
    <g transform="translate(348.57529838477615,65.46349058736628) rotate(-301.1525993688654,0,0)">
      <path fill="none" stroke="#000000" paint-order="fill stroke markers" d=" M -8 -8 L 8 -8 L 8 8 L -8 8 L -8 -8 Z"
        stroke-linecap="round" stroke-miterlimit="10"></path>
    </g>
    <g transform="translate(342.7860247200886,85.21649340316002) rotate(202.54282591109938,0,0)">
      <path fill="none" stroke="#000000" paint-order="fill stroke markers" d=" M -8 -8 L 8 -8 L 8 8 L -8 8 L -8 -8 Z"
        stroke-linecap="round" stroke-miterlimit="10"></path>
    </g>
    <g transform="translate(351.02690208905216,107.21890631975428) rotate(185.17159846036407,0,0)">
      <path fill="none" stroke="#000000" paint-order="fill stroke markers" d=" M -8 -8 L 8 -8 L 8 8 L -8 8 L -8 -8 Z"
        stroke-linecap="round" stroke-miterlimit="10"></path>
    </g>
    <g transform="translate(355.1096947979304,130.19623806631256) rotate(-217.86671863739306,0,0)">
      <path fill="none" stroke="#000000" paint-order="fill stroke markers" d=" M -8 -8 L 8 -8 L 8 8 L -8 8 L -8 -8 Z"
        stroke-linecap="round" stroke-miterlimit="10"></path>
    </g>
    <g transform="translate(350.57791894085835,144.31660762106011) rotate(390.72938518217643,0,0)">
      <path fill="none" stroke="#000000" paint-order="fill stroke markers" d=" M -8 -8 L 8 -8 L 8 8 L -8 8 L -8 -8 Z"
        stroke-linecap="round" stroke-miterlimit="10"></path>
    </g>
    <g transform="translate(344.37993596134703,160.71437406022096) rotate(-255.90509721400485,0,0)">
      <path fill="none" stroke="#000000" paint-order="fill stroke markers" d=" M -8 -8 L 8 -8 L 8 8 L -8 8 L -8 -8 Z"
        stroke-linecap="round" stroke-miterlimit="10"></path>
    </g>
    <g transform="translate(351.89551244773327,186.04659263145138) rotate(308.79797656308676,0,0)">
      <path fill="none" stroke="#000000" paint-order="fill stroke markers" d=" M -8 -8 L 8 -8 L 8 8 L -8 8 L -8 -8 Z"
        stroke-linecap="round" stroke-miterlimit="10"></path>
    </g>
    <g transform="translate(355.1536695163961,208.7329578244453) rotate(-358.8409638743333,0,0)">
      <path fill="none" stroke="#000000" paint-order="fill stroke markers" d=" M -8 -8 L 8 -8 L 8 8 L -8 8 L -8 -8 Z"
        stroke-linecap="round" stroke-miterlimit="10"></path>
    </g>
    <g transform="translate(352.55437143160367,234.9851481605224) rotate(222.32448600767646,0,0)">
      <path fill="none" stroke="#000000" paint-order="fill stroke markers" d=" M -8 -8 L 8 -8 L 8 8 L -8 8 L -8 -8 Z"
        stroke-linecap="round" stroke-miterlimit="10"></path>
    </g>
    <g transform="translate(344.2948250575747,251.00515540497022) rotate(134.49376748831685,0,0)">
      <path fill="none" stroke="#000000" paint-order="fill stroke markers" d=" M -8 -8 L 8 -8 L 8 8 L -8 8 L -8 -8 Z"
        stroke-linecap="round" stroke-miterlimit="10"></path>
    </g>
    <g transform="translate(360.6309824008299,45.66327603721245) rotate(-134.69010309709967,0,0)">
      <path fill="none" stroke="#000000" paint-order="fill stroke markers" d=" M -8 -8 L 8 -8 L 8 8 L -8 8 L -8 -8 Z"
        stroke-linecap="round" stroke-miterlimit="10"></path>
    </g>
    <g transform="translate(372.54201369475595,60.26253565332226) rotate(161.2793357017673,0,0)">
      <path fill="none" stroke="#000000" paint-order="fill stroke markers" d=" M -8 -8 L 8 -8 L 8 8 L -8 8 L -8 -8 Z"
        stroke-linecap="round" stroke-miterlimit="10"></path>
    </g>
    <g transform="translate(362.13699041347553,89.57771668196659) rotate(67.99706425439462,0,0)">
      <path fill="none" stroke="#000000" paint-order="fill stroke markers" d=" M -8 -8 L 8 -8 L 8 8 L -8 8 L -8 -8 Z"
        stroke-linecap="round" stroke-miterlimit="10"></path>
    </g>
    <g transform="translate(359.84387663012177,100.32508385146951) rotate(126.10861547834268,0,0)">
      <path fill="none" stroke="#000000" paint-order="fill stroke markers" d=" M -8 -8 L 8 -8 L 8 8 L -8 8 L -8 -8 Z"
        stroke-linecap="round" stroke-miterlimit="10"></path>
    </g>
    <g transform="translate(372.5017387009249,119.43952287135728) rotate(-303.965759134237,0,0)">
      <path fill="none" stroke="#000000" paint-order="fill stroke markers" d=" M -8 -8 L 8 -8 L 8 8 L -8 8 L -8 -8 Z"
        stroke-linecap="round" stroke-miterlimit="10"></path>
    </g>
    <g transform="translate(367.08830766024704,142.93134901473488) rotate(-64.14636584851655,0,0)">
      <path fill="none" stroke="#000000" paint-order="fill stroke markers" d=" M -8 -8 L 8 -8 L 8 8 L -8 8 L -8 -8 Z"
        stroke-linecap="round" stroke-miterlimit="10"></path>
    </g>
    <g transform="translate(361.2408816285971,175.0414662043107) rotate(114.80011510217197,0,0)">
      <path fill="none" stroke="#000000" paint-order="fill stroke markers" d=" M -8 -8 L 8 -8 L 8 8 L -8 8 L -8 -8 Z"
        stroke-linecap="round" stroke-miterlimit="10"></path>
    </g>
    <g transform="translate(371.30595146736334,187.24946626563312) rotate(-117.3424960083196,0,0)">
      <path fill="none" stroke="#000000" paint-order="fill stroke markers" d=" M -8 -8 L 8 -8 L 8 8 L -8 8 L -8 -8 Z"
        stroke-linecap="round" stroke-miterlimit="10"></path>
    </g>
    <g transform="translate(375.0184392853113,215.4464817935487) rotate(408.4703917974151,0,0)">
      <path fill="none" stroke="#000000" paint-order="fill stroke markers" d=" M -8 -8 L 8 -8 L 8 8 L -8 8 L -8 -8 Z"
        stroke-linecap="round" stroke-miterlimit="10"></path>
    </g>
    <g transform="translate(358.9873105047185,229.53047566550225) rotate(-260.4999555354581,0,0)">
      <path fill="none" stroke="#000000" paint-order="fill stroke markers" d=" M -8 -8 L 8 -8 L 8 8 L -8 8 L -8 -8 Z"
        stroke-linecap="round" stroke-miterlimit="10"></path>
    </g>
    <g transform="translate(360.93054842395225,248.72201457693438) rotate(14.740544799809356,0,0)">
      <path fill="none" stroke="#000000" paint-order="fill stroke markers" d=" M -8 -8 L 8 -8 L 8 8 L -8 8 L -8 -8 Z"
        stroke-linecap="round" stroke-miterlimit="10"></path>
    </g>
    <g transform="translate(383.53475341903913,42.62861681461767) rotate(-244.04217961448336,0,0)">
      <path fill="none" stroke="#000000" paint-order="fill stroke markers" d=" M -8 -8 L 8 -8 L 8 8 L -8 8 L -8 -8 Z"
        stroke-linecap="round" stroke-miterlimit="10"></path>
    </g>
    <g transform="translate(385.66990754539063,60.35756837151367) rotate(-264.36632714048994,0,0)">
      <path fill="none" stroke="#000000" paint-order="fill stroke markers" d=" M -8 -8 L 8 -8 L 8 8 L -8 8 L -8 -8 Z"
        stroke-linecap="round" stroke-miterlimit="10"></path>
    </g>
    <g transform="translate(378.66408328137607,91.01979251824764) rotate(108.71320992729443,0,0)">
      <path fill="none" stroke="#000000" paint-order="fill stroke markers" d=" M -8 -8 L 8 -8 L 8 8 L -8 8 L -8 -8 Z"
        stroke-linecap="round" stroke-miterlimit="10"></path>
    </g>
    <g transform="translate(379.5629966877897,113.27928353418034) rotate(-27.865160896473984,0,0)">
      <path fill="none" stroke="#000000" paint-order="fill stroke markers" d=" M -8 -8 L 8 -8 L 8 8 L -8 8 L -8 -8 Z"
        stroke-linecap="round" stroke-miterlimit="10"></path>
    </g>
    <g transform="translate(387.9866536223143,120.46621477253353) rotate(-386.35081379053725,0,0)">
      <path fill="none" stroke="#000000" paint-order="fill stroke markers" d=" M -8 -8 L 8 -8 L 8 8 L -8 8 L -8 -8 Z"
        stroke-linecap="round" stroke-miterlimit="10"></path>
    </g>
    <g transform="translate(387.33364658076096,147.41169619046892) rotate(-194.77021404763713,0,0)">
      <path fill="none" stroke="#000000" paint-order="fill stroke markers" d=" M -8 -8 L 8 -8 L 8 8 L -8 8 L -8 -8 Z"
        stroke-linecap="round" stroke-miterlimit="10"></path>
    </g>
    <g transform="translate(394.075294076289,165.48591896267843) rotate(322.7608978247058,0,0)">
      <path fill="none" stroke="#000000" paint-order="fill stroke markers" d=" M -8 -8 L 8 -8 L 8 8 L -8 8 L -8 -8 Z"
        stroke-linecap="round" stroke-miterlimit="10"></path>
    </g>
    <g transform="translate(385.14374451058956,179.23340161205417) rotate(-442.3371153243482,0,0)">
      <path fill="none" stroke="#000000" paint-order="fill stroke markers" d=" M -8 -8 L 8 -8 L 8 8 L -8 8 L -8 -8 Z"
        stroke-linecap="round" stroke-miterlimit="10"></path>
    </g>
    <g transform="translate(389.520377789695,213.32057828344955) rotate(-53.41677008569918,0,0)">
      <path fill="none" stroke="#000000" paint-order="fill stroke markers" d=" M -8 -8 L 8 -8 L 8 8 L -8 8 L -8 -8 Z"
        stroke-linecap="round" stroke-miterlimit="10"></path>
    </g>
    <g transform="translate(397.6012709426905,228.99577364534943) rotate(-506.03034855882566,0,0)">
      <path fill="none" stroke="#000000" paint-order="fill stroke markers" d=" M -8 -8 L 8 -8 L 8 8 L -8 8 L -8 -8 Z"
        stroke-linecap="round" stroke-miterlimit="10"></path>
    </g>
    <g transform="translate(393.9844564640473,252.19312164702188) rotate(-159.95277840429378,0,0)">
      <path fill="none" stroke="#000000" paint-order="fill stroke markers" d=" M -8 -8 L 8 -8 L 8 8 L -8 8 L -8 -8 Z"
        stroke-linecap="round" stroke-miterlimit="10"></path>
    </g>
    <g transform="translate(403.23294524309125,42.92407745542104) rotate(417.09566849454455,0,0)">
      <path fill="none" stroke="#000000" paint-order="fill stroke markers" d=" M -8 -8 L 8 -8 L 8 8 L -8 8 L -8 -8 Z"
        stroke-linecap="round" stroke-miterlimit="10"></path>
    </g>
    <g transform="translate(405.52190663505843,61.80690551403212) rotate(-446.04027178452264,0,0)">
      <path fill="none" stroke="#000000" paint-order="fill stroke markers" d=" M -8 -8 L 8 -8 L 8 8 L -8 8 L -8 -8 Z"
        stroke-linecap="round" stroke-miterlimit="10"></path>
    </g>
    <g transform="translate(400.03160614778903,82.64126618394857) rotate(33.15462670237946,0,0)">
      <path fill="none" stroke="#000000" paint-order="fill stroke markers" d=" M -8 -8 L 8 -8 L 8 8 L -8 8 L -8 -8 Z"
        stroke-linecap="round" stroke-miterlimit="10"></path>
    </g>
    <g transform="translate(417.36535307267707,105.45506271265165) rotate(316.3354010663588,0,0)">
      <path fill="none" stroke="#000000" paint-order="fill stroke markers" d=" M -8 -8 L 8 -8 L 8 8 L -8 8 L -8 -8 Z"
        stroke-linecap="round" stroke-miterlimit="10"></path>
    </g>
    <g transform="translate(399.7311793317244,117.82068769500863) rotate(-158.95595198680786,0,0)">
      <path fill="none" stroke="#000000" paint-order="fill stroke markers" d=" M -8 -8 L 8 -8 L 8 8 L -8 8 L -8 -8 Z"
        stroke-linecap="round" stroke-miterlimit="10"></path>
    </g>
    <g transform="translate(399.7913429778145,155.46505723765432) rotate(-404.0400569010166,0,0)">
      <path fill="none" stroke="#000000" paint-order="fill stroke markers" d=" M -8 -8 L 8 -8 L 8 8 L -8 8 L -8 -8 Z"
        stroke-linecap="round" stroke-miterlimit="10"></path>
    </g>
    <g transform="translate(398.79319112740325,159.19946985071232) rotate(-32.49317849806971,0,0)">
      <path fill="none" stroke="#000000" paint-order="fill stroke markers" d=" M -8 -8 L 8 -8 L 8 8 L -8 8 L -8 -8 Z"
        stroke-linecap="round" stroke-miterlimit="10"></path>
    </g>
    <g transform="translate(398.08073997853893,191.82580264334834) rotate(-337.00629105685846,0,0)">
      <path fill="none" stroke="#000000" paint-order="fill stroke markers" d=" M -8 -8 L 8 -8 L 8 8 L -8 8 L -8 -8 Z"
        stroke-linecap="round" stroke-miterlimit="10"></path>
    </g>
    <g transform="translate(412.0387303597402,207.39198842935545) rotate(51.75413273746051,0,0)">
      <path fill="none" stroke="#000000" paint-order="fill stroke markers" d=" M -8 -8 L 8 -8 L 8 8 L -8 8 L -8 -8 Z"
        stroke-linecap="round" stroke-miterlimit="10"></path>
    </g>
    <g transform="translate(407.28793676703475,234.740982531134) rotate(536.7708271645447,0,0)">
      <path fill="none" stroke="#000000" paint-order="fill stroke markers" d=" M -8 -8 L 8 -8 L 8 8 L -8 8 L -8 -8 Z"
        stroke-linecap="round" stroke-miterlimit="10"></path>
    </g>
    <g transform="translate(402.4313031419327,256.4914557422948) rotate(-505.9918714567243,0,0)">
      <path fill="none" stroke="#000000" paint-order="fill stroke markers" d=" M -8 -8 L 8 -8 L 8 8 L -8 8 L -8 -8 Z"
        stroke-linecap="round" stroke-miterlimit="10"></path>
    </g>
    <g transform="translate(439.44394573858017,57.489908400391386) rotate(58.957626273235526,0,0)">
      <path fill="none" stroke="#000000" paint-order="fill stroke markers" d=" M -8 -8 L 8 -8 L 8 8 L -8 8 L -8 -8 Z"
        stroke-linecap="round" stroke-miterlimit="10"></path>
    </g>
    <g transform="translate(433.0310314573972,63.03925362219811) rotate(391.5257203498863,0,0)">
      <path fill="none" stroke="#000000" paint-order="fill stroke markers" d=" M -8 -8 L 8 -8 L 8 8 L -8 8 L -8 -8 Z"
        stroke-linecap="round" stroke-miterlimit="10"></path>
    </g>
    <g transform="translate(435.70513648938277,98.93377852043419) rotate(-441.8608802363871,0,0)">
      <path fill="none" stroke="#000000" paint-order="fill stroke markers" d=" M -8 -8 L 8 -8 L 8 8 L -8 8 L -8 -8 Z"
        stroke-linecap="round" stroke-miterlimit="10"></path>
    </g>
    <g transform="translate(421.79020149507625,96.60765504857925) rotate(-60.70865683402008,0,0)">
      <path fill="none" stroke="#000000" paint-order="fill stroke markers" d=" M -8 -8 L 8 -8 L 8 8 L -8 8 L -8 -8 Z"
        stroke-linecap="round" stroke-miterlimit="10"></path>
    </g>
    <g transform="translate(416.7852381101041,134.59868008378868) rotate(-35.69546719276377,0,0)">
      <path fill="none" stroke="#000000" paint-order="fill stroke markers" d=" M -8 -8 L 8 -8 L 8 8 L -8 8 L -8 -8 Z"
        stroke-linecap="round" stroke-miterlimit="10"></path>
    </g>
    <g transform="translate(428.454579501624,149.82261985748963) rotate(62.81682617052047,0,0)">
      <path fill="none" stroke="#000000" paint-order="fill stroke markers" d=" M -8 -8 L 8 -8 L 8 8 L -8 8 L -8 -8 Z"
        stroke-linecap="round" stroke-miterlimit="10"></path>
    </g>
    <g transform="translate(433.4333239171013,172.25879572391602) rotate(-563.6842825507756,0,0)">
      <path fill="none" stroke="#000000" paint-order="fill stroke markers" d=" M -8 -8 L 8 -8 L 8 8 L -8 8 L -8 -8 Z"
        stroke-linecap="round" stroke-miterlimit="10"></path>
    </g>
    <g transform="translate(438.168527946197,178.81420335845726) rotate(-356.61884207993387,0,0)">
      <path fill="none" stroke="#000000" paint-order="fill stroke markers" d=" M -8 -8 L 8 -8 L 8 8 L -8 8 L -8 -8 Z"
        stroke-linecap="round" stroke-miterlimit="10"></path>
    </g>
    <g transform="translate(417.19118447424154,219.9137629646485) rotate(512.6003454617953,0,0)">
      <path fill="none" stroke="#000000" paint-order="fill stroke markers" d=" M -8 -8 L 8 -8 L 8 8 L -8 8 L -8 -8 Z"
        stroke-linecap="round" stroke-miterlimit="10"></path>
    </g>
    <g transform="translate(440.0001229653917,219.8867547107821) rotate(-39.237017641580564,0,0)">
      <path fill="none" stroke="#000000" paint-order="fill stroke markers" d=" M -8 -8 L 8 -8 L 8 8 L -8 8 L -8 -8 Z"
        stroke-linecap="round" stroke-miterlimit="10"></path>
    </g>
    <g transform="translate(427.0854350368029,235.90881101977084) rotate(-144.22894825407968,0,0)">
      <path fill="none" stroke="#000000" paint-order="fill stroke markers" d=" M -8 -8 L 8 -8 L 8 8 L -8 8 L -8 -8 Z"
        stroke-linecap="round" stroke-miterlimit="10"></path>
    </g>
    <g transform="translate(442.41906991957086,52.92793889258029) rotate(437.12461125869146,0,0)">
      <path fill="none" stroke="#000000" paint-order="fill stroke markers" d=" M -8 -8 L 8 -8 L 8 8 L -8 8 L -8 -8 Z"
        stroke-linecap="round" stroke-miterlimit="10"></path>
    </g>
    <g transform="translate(457.0297692381385,71.63438056541167) rotate(-45.744527978875006,0,0)">
      <path fill="none" stroke="#000000" paint-order="fill stroke markers" d=" M -8 -8 L 8 -8 L 8 8 L -8 8 L -8 -8 Z"
        stroke-linecap="round" stroke-miterlimit="10"></path>
    </g>
    <g transform="translate(437.5318429819773,95.40080436086004) rotate(-256.97113739493636,0,0)">
      <path fill="none" stroke="#000000" paint-order="fill stroke markers" d=" M -8 -8 L 8 -8 L 8 8 L -8 8 L -8 -8 Z"
        stroke-linecap="round" stroke-miterlimit="10"></path>
    </g>
    <g transform="translate(440.26155806156953,101.09027672383435) rotate(-122.71037248093603,0,0)">
      <path fill="none" stroke="#000000" paint-order="fill stroke markers" d=" M -8 -8 L 8 -8 L 8 8 L -8 8 L -8 -8 Z"
        stroke-linecap="round" stroke-miterlimit="10"></path>
    </g>
    <g transform="translate(454.50246233860696,134.592456194693) rotate(395.48533551151104,0,0)">
      <path fill="none" stroke="#000000" paint-order="fill stroke markers" d=" M -8 -8 L 8 -8 L 8 8 L -8 8 L -8 -8 Z"
        stroke-linecap="round" stroke-miterlimit="10"></path>
    </g>
    <g transform="translate(452.5376918533228,147.19754248317895) rotate(159.74082816691498,0,0)">
      <path fill="none" stroke="#000000" paint-order="fill stroke markers" d=" M -8 -8 L 8 -8 L 8 8 L -8 8 L -8 -8 Z"
        stroke-linecap="round" stroke-miterlimit="10"></path>
    </g>
    <g transform="translate(442.450329804475,154.99925509556542) rotate(651.7978499791507,0,0)">
      <path fill="none" stroke="#000000" paint-order="fill stroke markers" d=" M -8 -8 L 8 -8 L 8 8 L -8 8 L -8 -8 Z"
        stroke-linecap="round" stroke-miterlimit="10"></path>
    </g>
    <g transform="translate(442.70625419239906,178.71567681203894) rotate(421.84643816304947,0,0)">
      <path fill="none" stroke="#000000" paint-order="fill stroke markers" d=" M -8 -8 L 8 -8 L 8 8 L -8 8 L -8 -8 Z"
        stroke-linecap="round" stroke-miterlimit="10"></path>
    </g>
    <g transform="translate(452.2822843811963,216.7433425861611) rotate(182.034188496831,0,0)">
      <path fill="none" stroke="#000000" paint-order="fill stroke markers" d=" M -8 -8 L 8 -8 L 8 8 L -8 8 L -8 -8 Z"
        stroke-linecap="round" stroke-miterlimit="10"></path>
    </g>
    <g transform="translate(455.4171265181067,232.01021165724572) rotate(684.1957835365731,0,0)">
      <path fill="none" stroke="#000000" paint-order="fill stroke markers" d=" M -8 -8 L 8 -8 L 8 8 L -8 8 L -8 -8 Z"
        stroke-linecap="round" stroke-miterlimit="10"></path>
    </g>
    <g transform="translate(459.5125075112055,238.67423731896017) rotate(-86.9956475521293,0,0)">
      <path fill="none" stroke="#000000" paint-order="fill stroke markers" d=" M -8 -8 L 8 -8 L 8 8 L -8 8 L -8 -8 Z"
        stroke-linecap="round" stroke-miterlimit="10"></path>
    </g>
    <g transform="translate(462.47554734988205,58.38666346231813) rotate(-530.5670874765674,0,0)">
      <path fill="none" stroke="#000000" paint-order="fill stroke markers" d=" M -8 -8 L 8 -8 L 8 8 L -8 8 L -8 -8 Z"
        stroke-linecap="round" stroke-miterlimit="10"></path>
    </g>
    <g transform="translate(475.98247996683523,81.45076116639893) rotate(-3.2040023199381267,0,0)">
      <path fill="none" stroke="#000000" paint-order="fill stroke markers" d=" M -8 -8 L 8 -8 L 8 8 L -8 8 L -8 -8 Z"
        stroke-linecap="round" stroke-miterlimit="10"></path>
    </g>
    <g transform="translate(479.68675861554397,88.55727688226241) rotate(168.17789116131405,0,0)">
      <path fill="none" stroke="#000000" paint-order="fill stroke markers" d=" M -8 -8 L 8 -8 L 8 8 L -8 8 L -8 -8 Z"
        stroke-linecap="round" stroke-miterlimit="10"></path>
    </g>
    <g transform="translate(481.8361703794503,99.06206532587358) rotate(136.0419593996121,0,0)">
      <path fill="none" stroke="#000000" paint-order="fill stroke markers" d=" M -8 -8 L 8 -8 L 8 8 L -8 8 L -8 -8 Z"
        stroke-linecap="round" stroke-miterlimit="10"></path>
    </g>
    <g transform="translate(458.7376240097016,122.88193656444213) rotate(-406.30505828068465,0,0)">
      <path fill="none" stroke="#000000" paint-order="fill stroke markers" d=" M -8 -8 L 8 -8 L 8 8 L -8 8 L -8 -8 Z"
        stroke-linecap="round" stroke-miterlimit="10"></path>
    </g>
    <g transform="translate(457.2575055183626,145.5230309593291) rotate(610.1688682914971,0,0)">
      <path fill="none" stroke="#000000" paint-order="fill stroke markers" d=" M -8 -8 L 8 -8 L 8 8 L -8 8 L -8 -8 Z"
        stroke-linecap="round" stroke-miterlimit="10"></path>
    </g>
    <g transform="translate(461.14537843852264,173.93601881875074) rotate(722.4965229242704,0,0)">
      <path fill="none" stroke="#000000" paint-order="fill stroke markers" d=" M -8 -8 L 8 -8 L 8 8 L -8 8 L -8 -8 Z"
        stroke-linecap="round" stroke-miterlimit="10"></path>
    </g>
    <g transform="translate(461.40411729958305,184.6283775400613) rotate(-7.075332922566417,0,0)">
      <path fill="none" stroke="#000000" paint-order="fill stroke markers" d=" M -8 -8 L 8 -8 L 8 8 L -8 8 L -8 -8 Z"
        stroke-linecap="round" stroke-miterlimit="10"></path>
    </g>
    <g transform="translate(456.4528222323074,215.02476074131482) rotate(171.76878254355415,0,0)">
      <path fill="none" stroke="#000000" paint-order="fill stroke markers" d=" M -8 -8 L 8 -8 L 8 8 L -8 8 L -8 -8 Z"
        stroke-linecap="round" stroke-miterlimit="10"></path>
    </g>
    <g transform="translate(472.9347036967198,213.36188590302083) rotate(228.34445925549335,0,0)">
      <path fill="none" stroke="#000000" paint-order="fill stroke markers" d=" M -8 -8 L 8 -8 L 8 8 L -8 8 L -8 -8 Z"
        stroke-linecap="round" stroke-miterlimit="10"></path>
    </g>
    <g transform="translate(453.57341603646114,247.0567432020352) rotate(-23.693020504329183,0,0)">
      <path fill="none" stroke="#000000" paint-order="fill stroke markers" d=" M -8 -8 L 8 -8 L 8 8 L -8 8 L -8 -8 Z"
        stroke-linecap="round" stroke-miterlimit="10"></path>
    </g>
    <g transform="translate(495.8870760980971,61.787318499198804) rotate(-516.5564759979709,0,0)">
      <path fill="none" stroke="#000000" paint-order="fill stroke markers" d=" M -8 -8 L 8 -8 L 8 8 L -8 8 L -8 -8 Z"
        stroke-linecap="round" stroke-miterlimit="10"></path>
    </g>
    <g transform="translate(472.89865958777824,66.25914128424925) rotate(-604.2175364621509,0,0)">
      <path fill="none" stroke="#000000" paint-order="fill stroke markers" d=" M -8 -8 L 8 -8 L 8 8 L -8 8 L -8 -8 Z"
        stroke-linecap="round" stroke-miterlimit="10"></path>
    </g>
    <g transform="translate(472.742913070948,96.0308253606076) rotate(-641.9409016946496,0,0)">
      <path fill="none" stroke="#000000" paint-order="fill stroke markers" d=" M -8 -8 L 8 -8 L 8 8 L -8 8 L -8 -8 Z"
        stroke-linecap="round" stroke-miterlimit="10"></path>
    </g>
    <g transform="translate(487.163024439774,107.51569755342409) rotate(302.6585448769051,0,0)">
      <path fill="none" stroke="#000000" paint-order="fill stroke markers" d=" M -8 -8 L 8 -8 L 8 8 L -8 8 L -8 -8 Z"
        stroke-linecap="round" stroke-miterlimit="10"></path>
    </g>
    <g transform="translate(494.5846007637433,132.45469346027224) rotate(591.3331390935938,0,0)">
      <path fill="none" stroke="#000000" paint-order="fill stroke markers" d=" M -8 -8 L 8 -8 L 8 8 L -8 8 L -8 -8 Z"
        stroke-linecap="round" stroke-miterlimit="10"></path>
    </g>
    <g transform="translate(472.92799691495645,156.25211490505174) rotate(643.0976206858436,0,0)">
      <path fill="none" stroke="#000000" paint-order="fill stroke markers" d=" M -8 -8 L 8 -8 L 8 8 L -8 8 L -8 -8 Z"
        stroke-linecap="round" stroke-miterlimit="10"></path>
    </g>
    <g transform="translate(501.634840311712,163.2659965538781) rotate(-21.7824414380201,0,0)">
      <path fill="none" stroke="#000000" paint-order="fill stroke markers" d=" M -8 -8 L 8 -8 L 8 8 L -8 8 L -8 -8 Z"
        stroke-linecap="round" stroke-miterlimit="10"></path>
    </g>
    <g transform="translate(498.078422963611,191.5983304290647) rotate(720.0216123750807,0,0)">
      <path fill="none" stroke="#000000" paint-order="fill stroke markers" d=" M -8 -8 L 8 -8 L 8 8 L -8 8 L -8 -8 Z"
        stroke-linecap="round" stroke-miterlimit="10"></path>
    </g>
    <g transform="translate(493.63088807556153,194.4768200314033) rotate(-155.66494059848586,0,0)">
      <path fill="none" stroke="#000000" paint-order="fill stroke markers" d=" M -8 -8 L 8 -8 L 8 8 L -8 8 L -8 -8 Z"
        stroke-linecap="round" stroke-miterlimit="10"></path>
    </g>
    <g transform="translate(482.02693158533543,224.96957083157392) rotate(752.3417013032902,0,0)">
      <path fill="none" stroke="#000000" paint-order="fill stroke markers" d=" M -8 -8 L 8 -8 L 8 8 L -8 8 L -8 -8 Z"
        stroke-linecap="round" stroke-miterlimit="10"></path>
    </g>
    <g transform="translate(486.2877889315864,231.6068453355843) rotate(427.82049162388057,0,0)">
      <path fill="none" stroke="#000000" paint-order="fill stroke markers" d=" M -8 -8 L 8 -8 L 8 8 L -8 8 L -8 -8 Z"
        stroke-linecap="round" stroke-miterlimit="10"></path>
    </g>
    <g transform="translate(501.85392927668534,61.70865066482215) rotate(262.46500000639367,0,0)">
      <path fill="none" stroke="#000000" paint-order="fill stroke markers" d=" M -8 -8 L 8 -8 L 8 8 L -8 8 L -8 -8 Z"
        stroke-linecap="round" stroke-miterlimit="10"></path>
    </g>
    <g transform="translate(500.08477656778615,54.17993137127166) rotate(-511.5504259505141,0,0)">
      <path fill="none" stroke="#000000" paint-order="fill stroke markers" d=" M -8 -8 L 8 -8 L 8 8 L -8 8 L -8 -8 Z"
        stroke-linecap="round" stroke-miterlimit="10"></path>
    </g>
    <g transform="translate(511.06608605508615,80.2060127002402) rotate(-149.7198090986559,0,0)">
      <path fill="none" stroke="#000000" paint-order="fill stroke markers" d=" M -8 -8 L 8 -8 L 8 8 L -8 8 L -8 -8 Z"
        stroke-linecap="round" stroke-miterlimit="10"></path>
    </g>
    <g transform="translate(511.3598588266575,113.35108308403665) rotate(-107.38579733024642,0,0)">
      <path fill="none" stroke="#000000" paint-order="fill stroke markers" d=" M -8 -8 L 8 -8 L 8 8 L -8 8 L -8 -8 Z"
        stroke-linecap="round" stroke-miterlimit="10"></path>
    </g>
    <g transform="translate(496.2265722733458,141.0788262082895) rotate(-44.36896877782261,0,0)">
      <path fill="none" stroke="#000000" paint-order="fill stroke markers" d=" M -8 -8 L 8 -8 L 8 8 L -8 8 L -8 -8 Z"
        stroke-linecap="round" stroke-miterlimit="10"></path>
    </g>
    <g transform="translate(521.9038972079823,160.86406747546485) rotate(-595.3952950929261,0,0)">
      <path fill="none" stroke="#000000" paint-order="fill stroke markers" d=" M -8 -8 L 8 -8 L 8 8 L -8 8 L -8 -8 Z"
        stroke-linecap="round" stroke-miterlimit="10"></path>
    </g>
    <g transform="translate(507.61648763855857,170.92931463934255) rotate(135.2248386194858,0,0)">
      <path fill="none" stroke="#000000" paint-order="fill stroke markers" d=" M -8 -8 L 8 -8 L 8 8 L -8 8 L -8 -8 Z"
        stroke-linecap="round" stroke-miterlimit="10"></path>
    </g>
    <g transform="translate(499.72691253683456,171.33564566885704) rotate(-214.10945230416735,0,0)">
      <path fill="none" stroke="#000000" paint-order="fill stroke markers" d=" M -8 -8 L 8 -8 L 8 8 L -8 8 L -8 -8 Z"
        stroke-linecap="round" stroke-miterlimit="10"></path>
    </g>
    <g transform="translate(518.0207579439705,212.1438155085076) rotate(-779.9777070850635,0,0)">
      <path fill="none" stroke="#000000" paint-order="fill stroke markers" d=" M -8 -8 L 8 -8 L 8 8 L -8 8 L -8 -8 Z"
        stroke-linecap="round" stroke-miterlimit="10"></path>
    </g>
    <g transform="translate(500.9090310832004,235.4607823774558) rotate(-864.0540842241461,0,0)">
      <path fill="none" stroke="#000000" paint-order="fill stroke markers" d=" M -8 -8 L 8 -8 L 8 8 L -8 8 L -8 -8 Z"
        stroke-linecap="round" stroke-miterlimit="10"></path>
    </g>
    <g transform="translate(509.4391902032787,235.36956947235322) rotate(850.3920076845812,0,0)">
      <path fill="none" stroke="#000000" paint-order="fill stroke markers" d=" M -8 -8 L 8 -8 L 8 8 L -8 8 L -8 -8 Z"
        stroke-linecap="round" stroke-miterlimit="10"></path>
    </g>
    <g transform="translate(529.2537222184268,33.038609662430446) rotate(137.99610995751982,0,0)">
      <path fill="none" stroke="#000000" paint-order="fill stroke markers" d=" M -8 -8 L 8 -8 L 8 8 L -8 8 L -8 -8 Z"
        stroke-linecap="round" stroke-miterlimit="10"></path>
    </g>
    <g transform="translate(542.7112995576831,63.92255615892073) rotate(-422.419154905097,0,0)">
      <path fill="none" stroke="#000000" paint-order="fill stroke markers" d=" M -8 -8 L 8 -8 L 8 8 L -8 8 L -8 -8 Z"
        stroke-linecap="round" stroke-miterlimit="10"></path>
    </g>
    <g transform="translate(531.8698852030808,102.66776083513102) rotate(470.0606763163603,0,0)">
      <path fill="none" stroke="#000000" paint-order="fill stroke markers" d=" M -8 -8 L 8 -8 L 8 8 L -8 8 L -8 -8 Z"
        stroke-linecap="round" stroke-miterlimit="10"></path>
    </g>
    <g transform="translate(510.8638700403937,114.3916470462495) rotate(-882.7889615775593,0,0)">
      <path fill="none" stroke="#000000" paint-order="fill stroke markers" d=" M -8 -8 L 8 -8 L 8 8 L -8 8 L -8 -8 Z"
        stroke-linecap="round" stroke-miterlimit="10"></path>
    </g>
    <g transform="translate(534.578574909358,136.84612610679716) rotate(-498.5368757175892,0,0)">
      <path fill="none" stroke="#000000" paint-order="fill stroke markers" d=" M -8 -8 L 8 -8 L 8 8 L -8 8 L -8 -8 Z"
        stroke-linecap="round" stroke-miterlimit="10"></path>
    </g>
    <g transform="translate(539.6632672217232,163.93500342548458) rotate(343.40695141181027,0,0)">
      <path fill="none" stroke="#000000" paint-order="fill stroke markers" d=" M -8 -8 L 8 -8 L 8 8 L -8 8 L -8 -8 Z"
        stroke-linecap="round" stroke-miterlimit="10"></path>
    </g>
    <g transform="translate(528.850886022429,181.689948803689) rotate(720.6092566235341,0,0)">
      <path fill="none" stroke="#000000" paint-order="fill stroke markers" d=" M -8 -8 L 8 -8 L 8 8 L -8 8 L -8 -8 Z"
        stroke-linecap="round" stroke-miterlimit="10"></path>
    </g>
    <g transform="translate(512.3349471791414,186.33679578740848) rotate(357.0242024443487,0,0)">
      <path fill="none" stroke="#000000" paint-order="fill stroke markers" d=" M -8 -8 L 8 -8 L 8 8 L -8 8 L -8 -8 Z"
        stroke-linecap="round" stroke-miterlimit="10"></path>
    </g>
    <g transform="translate(530.6208051406488,221.79889831324044) rotate(-32.36165333597626,0,0)">
      <path fill="none" stroke="#000000" paint-order="fill stroke markers" d=" M -8 -8 L 8 -8 L 8 8 L -8 8 L -8 -8 Z"
        stroke-linecap="round" stroke-miterlimit="10"></path>
    </g>
    <g transform="translate(525.1299969375692,221.68998354934257) rotate(-696.2138719754355,0,0)">
      <path fill="none" stroke="#000000" paint-order="fill stroke markers" d=" M -8 -8 L 8 -8 L 8 8 L -8 8 L -8 -8 Z"
        stroke-linecap="round" stroke-miterlimit="10"></path>
    </g>
    <g transform="translate(529.1941825109812,258.8650685680572) rotate(797.5485167624304,0,0)">
      <path fill="none" stroke="#000000" paint-order="fill stroke markers" d=" M -8 -8 L 8 -8 L 8 8 L -8 8 L -8 -8 Z"
        stroke-linecap="round" stroke-miterlimit="10"></path>
    </g>
    <g transform="translate(545.4044852350085,42.539670213310025) rotate(371.365087381399,0,0)">
      <path fill="none" stroke="#000000" paint-order="fill stroke markers" d=" M -8 -8 L 8 -8 L 8 8 L -8 8 L -8 -8 Z"
        stroke-linecap="round" stroke-miterlimit="10"></path>
    </g>
    <g transform="translate(558.4670090747281,86.04679947706023) rotate(310.77462084561057,0,0)">
      <path fill="none" stroke="#000000" paint-order="fill stroke markers" d=" M -8 -8 L 8 -8 L 8 8 L -8 8 L -8 -8 Z"
        stroke-linecap="round" stroke-miterlimit="10"></path>
    </g>
    <g transform="translate(532.6446865351086,82.13493030319799) rotate(558.0193262010529,0,0)">
      <path fill="none" stroke="#000000" paint-order="fill stroke markers" d=" M -8 -8 L 8 -8 L 8 8 L -8 8 L -8 -8 Z"
        stroke-linecap="round" stroke-miterlimit="10"></path>
    </g>
    <g transform="translate(542.6465747685006,123.15673912472464) rotate(241.48328762547226,0,0)">
      <path fill="none" stroke="#000000" paint-order="fill stroke markers" d=" M -8 -8 L 8 -8 L 8 8 L -8 8 L -8 -8 Z"
        stroke-linecap="round" stroke-miterlimit="10"></path>
    </g>
    <g transform="translate(545.5388329109604,131.3856198664849) rotate(-406.4254723250461,0,0)">
      <path fill="none" stroke="#000000" paint-order="fill stroke markers" d=" M -8 -8 L 8 -8 L 8 8 L -8 8 L -8 -8 Z"
        stroke-linecap="round" stroke-miterlimit="10"></path>
    </g>
    <g transform="translate(565.7652024331071,164.63432821244402) rotate(-648.4994285678775,0,0)">
      <path fill="none" stroke="#000000" paint-order="fill stroke markers" d=" M -8 -8 L 8 -8 L 8 8 L -8 8 L -8 -8 Z"
        stroke-linecap="round" stroke-miterlimit="10"></path>
    </g>
    <g transform="translate(564.803695748801,158.54738934372094) rotate(-74.502500822196,0,0)">
      <path fill="none" stroke="#000000" paint-order="fill stroke markers" d=" M -8 -8 L 8 -8 L 8 8 L -8 8 L -8 -8 Z"
        stroke-linecap="round" stroke-miterlimit="10"></path>
    </g>
    <g transform="translate(531.9099157013504,188.50184445403144) rotate(158.0319860609957,0,0)">
      <path fill="none" stroke="#000000" paint-order="fill stroke markers" d=" M -8 -8 L 8 -8 L 8 8 L -8 8 L -8 -8 Z"
        stroke-linecap="round" stroke-miterlimit="10"></path>
    </g>
    <g transform="translate(550.2338364318997,199.81734179282486) rotate(777.623974908183,0,0)">
      <path fill="none" stroke="#000000" paint-order="fill stroke markers" d=" M -8 -8 L 8 -8 L 8 8 L -8 8 L -8 -8 Z"
        stroke-linecap="round" stroke-miterlimit="10"></path>
    </g>
    <g transform="translate(554.0994723584263,239.16293089732255) rotate(460.49330891553797,0,0)">
      <path fill="none" stroke="#000000" paint-order="fill stroke markers" d=" M -8 -8 L 8 -8 L 8 8 L -8 8 L -8 -8 Z"
        stroke-linecap="round" stroke-miterlimit="10"></path>
    </g>
    <g transform="translate(536.9360668821079,260.1382057460046) rotate(687.9990127255104,0,0)">
      <path fill="none" stroke="#000000" paint-order="fill stroke markers" d=" M -8 -8 L 8 -8 L 8 8 L -8 8 L -8 -8 Z"
        stroke-linecap="round" stroke-miterlimit="10"></path>
    </g>
  </g>
</svg>